<?xml version="1.0" encoding="UTF-8" standalone="no"?>
<!DOCTYPE svg PUBLIC "-//W3C//DTD SVG 1.1//EN" "http://www.w3.org/Graphics/SVG/1.1/DTD/svg11.dtd">
<svg width="100%" height="100%" viewBox="0 0 1080 1080" version="1.1" xmlns="http://www.w3.org/2000/svg" xmlns:xlink="http://www.w3.org/1999/xlink" xml:space="preserve" xmlns:serif="http://www.serif.com/" style="fill-rule:evenodd;clip-rule:evenodd;stroke-linecap:round;">
    <g transform="matrix(1,0,0,1,-1153.52,0)">
        <g id="dark-mode-icon" serif:id="dark mode icon" transform="matrix(1,0,0,1,1153.52,0)">
            <rect x="0" y="0" width="1080" height="1080" style="fill:none;"/>
            <g transform="matrix(20.5337,0,0,20.6442,48.5333,23.9269)">
                <g transform="matrix(2,0,0,2,0,0)">
                    <path d="M14.5,7L9.5,7C6.213,7 4.569,7 3.462,7.908C3.26,8.074 3.074,8.26 2.908,8.462C2,9.569 2,11.213 2,14.5C2,17.788 2,19.431 2.908,20.538C3.074,20.74 3.26,20.926 3.462,21.092C4.569,22 6.213,22 9.5,22L14.5,22C17.788,22 19.431,22 20.538,21.092C20.74,20.926 20.926,20.74 21.092,20.538C22,19.431 22,17.788 22,14.5C22,11.213 22,9.569 21.092,8.462C20.926,8.26 20.74,8.074 20.538,7.908C19.431,7 17.788,7 14.5,7Z" style="fill:rgb(58,53,49);fill-rule:nonzero;stroke:rgb(212,195,189);stroke-width:1.5px;"/>
                </g>
                <g transform="matrix(2,0,0,2,0,0)">
                    <path d="M12,7L12,5C12,4.448 12.448,4 13,4C13.552,4 14,3.552 14,3L14,2" style="fill:none;fill-rule:nonzero;stroke:rgb(212,195,189);stroke-width:1.5px;stroke-linejoin:round;"/>
                </g>
                <g>
                    <g transform="matrix(2,0,0,2,0,0)">
                        <path d="M7,12L8,12" style="fill:none;fill-rule:nonzero;stroke:rgb(212,195,189);stroke-width:1.5px;stroke-linejoin:round;"/>
                    </g>
                    <g transform="matrix(2,0,0,2,0,0)">
                        <path d="M11.5,12L12.5,12" style="fill:none;fill-rule:nonzero;stroke:rgb(212,195,189);stroke-width:1.5px;stroke-linejoin:round;"/>
                    </g>
                    <g transform="matrix(2,0,0,2,0,0)">
                        <path d="M16,12L17,12" style="fill:none;fill-rule:nonzero;stroke:rgb(212,195,189);stroke-width:1.5px;stroke-linejoin:round;"/>
                    </g>
                    <g transform="matrix(2,0,0,2,0,0)">
                        <path d="M7,17L17,17" style="fill:none;fill-rule:nonzero;stroke:rgb(212,195,189);stroke-width:1.5px;stroke-linejoin:round;"/>
                    </g>
                </g>
            </g>
        </g>
    </g>
</svg>
